<?xml version="1.0" encoding="iso-8859-1"?>
<!-- Generator: Adobe Illustrator 19.0.0, SVG Export Plug-In . SVG Version: 6.00 Build 0)  -->
<svg version="1.1" id="Layer_1" xmlns="http://www.w3.org/2000/svg" xmlns:xlink="http://www.w3.org/1999/xlink" x="0px" y="0px"
	 viewBox="0 0 512 512" style="enable-background:new 0 0 512 512;" xml:space="preserve">
<circle style="fill:#E21B1B;" cx="256" cy="256" r="256"/>
<g>
	<path style="fill:#FFFFFF;" d="M98.208,259.104V173.2h17.112l20.328,60.824c1.872,5.664,3.24,9.904,4.112,12.72
		c0.968-3.128,2.496-7.72,4.56-13.776l20.568-59.768h15.288v85.896h-10.952v-71.888l-24.96,71.888h-10.256l-24.84-73.128v73.128
		h-10.96V259.104z"/>
	<path style="fill:#FFFFFF;" d="M196.704,283.072l-1.168-9.904c2.304,0.624,4.32,0.936,6.04,0.936c2.344,0,4.216-0.392,5.624-1.168
		s2.552-1.872,3.464-3.28c0.656-1.056,1.736-3.672,3.216-7.848c0.192-0.584,0.504-1.448,0.936-2.576l-23.616-62.36h11.36
		l12.952,36.04c1.68,4.56,3.176,9.376,4.512,14.408c1.2-4.832,2.648-9.56,4.328-14.168l13.304-36.272H248.2l-23.672,63.28
		c-2.536,6.832-4.504,11.536-5.912,14.12c-1.872,3.48-4.032,6.032-6.456,7.648c-2.424,1.624-5.312,2.432-8.672,2.432
		C201.472,284.352,199.2,283.92,196.704,283.072z"/>
	<path style="fill:#FFFFFF;" d="M254.656,231.504l10.72-0.936c0.504,4.296,1.696,7.824,3.544,10.568
		c1.856,2.76,4.736,4.984,8.64,6.68c3.904,1.704,8.304,2.544,13.184,2.544c4.336,0,8.168-0.64,11.488-1.928s5.792-3.056,7.416-5.304
		c1.616-2.24,2.432-4.696,2.432-7.352c0-2.696-0.784-5.048-2.344-7.064c-1.56-2.008-4.144-3.696-7.736-5.072
		c-2.304-0.888-7.408-2.288-15.296-4.184c-7.888-1.888-13.416-3.68-16.576-5.36c-4.104-2.152-7.16-4.816-9.168-8
		c-2.008-3.176-3.016-6.744-3.016-10.688c0-4.344,1.232-8.392,3.688-12.168c2.472-3.768,6.056-6.624,10.784-8.584
		c4.728-1.944,9.984-2.92,15.768-2.92c6.368,0,11.984,1.024,16.84,3.072c4.864,2.056,8.6,5.072,11.216,9.056
		s4.024,8.496,4.216,13.528l-10.888,0.832c-0.592-5.432-2.568-9.528-5.952-12.312c-3.376-2.768-8.368-4.16-14.968-4.16
		c-6.872,0-11.88,1.256-15.032,3.784c-3.144,2.512-4.72,5.552-4.72,9.112c0,3.088,1.12,5.624,3.344,7.616
		c2.184,1.992,7.896,4.032,17.144,6.128c9.232,2.088,15.568,3.912,19.016,5.48c4.992,2.304,8.688,5.224,11.072,8.76
		s3.568,7.608,3.568,12.216c0,4.568-1.304,8.872-3.92,12.92c-2.616,4.04-6.376,7.184-11.28,9.432
		c-4.896,2.248-10.424,3.376-16.544,3.376c-7.784,0-14.288-1.144-19.544-3.408c-5.248-2.256-9.376-5.672-12.36-10.216
		C256.384,242.392,254.816,237.24,254.656,231.504z"/>
	<path style="fill:#FFFFFF;" d="M376.88,282.944V252.48c-1.64,2.312-3.936,4.216-6.88,5.752c-2.952,1.512-6.088,2.28-9.408,2.28
		c-7.384,0-13.744-2.944-19.072-8.84c-5.336-5.896-8-13.984-8-24.264c0-6.24,1.088-11.848,3.248-16.816
		c2.168-4.96,5.312-8.72,9.44-11.28c4.12-2.552,8.64-3.832,13.56-3.832c7.696,0,13.752,3.24,18.168,9.728v-8.32h9.496v86.072H376.88
		V282.944z M344.368,227.816c0,8.008,1.672,14.016,5.032,18.016c3.36,4.008,7.392,6.008,12.08,6.008
		c4.488,0,8.352-1.904,11.592-5.712c3.24-3.816,4.864-9.6,4.864-17.376c0-8.28-1.712-14.504-5.128-18.696
		c-3.424-4.168-7.44-6.264-12.04-6.264c-4.576,0-8.456,1.944-11.632,5.832C345.952,213.504,344.368,219.568,344.368,227.816z"/>
	<path style="fill:#FFFFFF;" d="M403.712,259.104V173.2h10.544v85.896h-10.544V259.104z"/>
</g>
<rect x="92" y="338.32" width="328" height="8"/>
<path style="fill:#FFFFFF;" d="M420,372.976h-8v-8h8V372.976z M404,372.976h-8v-8h8V372.976z M388,372.976h-8v-8h8V372.976z
	 M372,372.976h-8v-8h8V372.976z M356,372.976h-8v-8h8V372.976z M340,372.976h-8v-8h8V372.976z M324,372.976h-8v-8h8V372.976z
	 M308,372.976h-8v-8h8V372.976z M292,372.976h-8v-8h8V372.976z M276,372.976h-8v-8h8V372.976z M260,372.976h-8v-8h8V372.976z
	 M244,372.976h-8v-8h8V372.976z M228,372.976h-8v-8h8V372.976z M212,372.976h-8v-8h8V372.976z M196,372.976h-8v-8h8V372.976z
	 M180,372.976h-8v-8h8V372.976z M164,372.976h-8v-8h8V372.976z M148,372.976h-8v-8h8V372.976z M132,372.976h-8v-8h8V372.976z
	 M116,372.976h-8v-8h8V372.976z M100,372.976h-8v-8h8V372.976z"/>
<g>
</g>
<g>
</g>
<g>
</g>
<g>
</g>
<g>
</g>
<g>
</g>
<g>
</g>
<g>
</g>
<g>
</g>
<g>
</g>
<g>
</g>
<g>
</g>
<g>
</g>
<g>
</g>
<g>
</g>
</svg>
